<svg width="445" height="187" viewBox="0 0 445 187" fill="none" xmlns="http://www.w3.org/2000/svg">
<g opacity="0.05">
<path d="M19.8755 63.9145L11.3165 62.9676C10.5982 64.8459 10.0261 67.2301 9.73402 69.87C9.65364 70.5965 9.60056 71.3074 9.56775 72.0011L18.7261 73.0143C18.7947 72.3072 18.8649 71.5994 18.9435 70.8889C19.2046 68.5308 19.519 66.2046 19.8755 63.9145Z" fill="#EBEBEB"/>
<path d="M19.8753 63.9145C20.1074 62.4231 20.3593 60.9498 20.6301 59.4952L14.8365 58.8542C14.6916 58.8382 14.5456 58.851 14.3995 58.8823C14.3556 58.8917 14.3116 58.9119 14.2675 58.9256C14.1641 58.9576 14.0607 58.9953 13.9574 59.0495C13.9093 59.0748 13.8612 59.1068 13.8132 59.1367C13.7113 59.2003 13.6097 59.2718 13.5085 59.3561C13.4649 59.3924 13.4218 59.4301 13.3785 59.4699C13.267 59.5725 13.1565 59.6867 13.0467 59.8129C13.0158 59.8484 12.985 59.8812 12.9545 59.9185C12.8152 60.0877 12.6773 60.2711 12.5415 60.476C12.5415 60.4762 12.5413 60.4764 12.5413 60.4766C12.103 61.1394 11.6874 61.983 11.3121 62.9671L19.8753 63.9145Z" fill="#EBEBEB"/>
<path d="M11.4656 81.3287C11.5088 81.3665 11.5516 81.4071 11.5961 81.4399C11.6704 81.4946 11.7476 81.5364 11.8251 81.5764C11.8635 81.596 11.9004 81.6218 11.9395 81.6377C12.058 81.6865 12.1796 81.7209 12.3051 81.7348L18.0987 82.3758C18.2105 79.311 18.4182 76.1826 18.7262 73.0144L9.56782 72.0011C9.56784 72.0027 9.56747 72.0043 9.56749 72.0059C9.55476 72.2781 9.5476 72.545 9.54177 72.8107C9.54011 72.8889 9.53716 72.9678 9.53617 73.0454C9.53273 73.2914 9.53358 73.5328 9.53601 73.7726C9.53688 73.864 9.53736 73.9554 9.53935 74.0457C9.54381 74.2743 9.55128 74.4993 9.56128 74.7213C9.56537 74.8178 9.57036 74.9135 9.5758 75.0088C9.58761 75.2234 9.60154 75.4351 9.61835 75.6424C9.62619 75.7376 9.63528 75.8305 9.64411 75.924C9.66276 76.1255 9.68259 76.3254 9.7065 76.5191C9.71752 76.6108 9.73099 76.6985 9.74322 76.7883C9.76925 76.9791 9.79509 77.1698 9.82546 77.352C9.83725 77.4224 9.85162 77.4874 9.86395 77.5565C9.93187 77.9337 10.0098 78.2906 10.0974 78.6255C10.1121 78.6818 10.125 78.7429 10.14 78.7979C10.1738 78.919 10.2115 79.0293 10.2475 79.144C10.2813 79.2509 10.3139 79.36 10.3497 79.4613C10.3856 79.5628 10.4244 79.6558 10.4624 79.7512C10.5032 79.8536 10.5438 79.9556 10.5872 80.051C10.6257 80.1363 10.6663 80.2153 10.7068 80.2947C10.7543 80.3877 10.8026 80.4779 10.8526 80.5626C10.8938 80.6324 10.9356 80.6985 10.9785 80.7623C11.0326 80.8432 11.0882 80.9185 11.145 80.9902C11.1879 81.0443 11.2309 81.0979 11.2753 81.1464C11.3371 81.214 11.401 81.2723 11.4656 81.3287Z" fill="#CBCBCB"/>
<path d="M434.745 119.041C434.866 118.355 434.976 117.655 435.057 116.926C435.349 114.286 435.312 111.834 435.021 109.844L424.315 108.66C424.163 110.972 423.961 113.311 423.7 115.669C423.621 116.38 423.535 117.086 423.448 117.791L434.745 119.041Z" fill="#EBEBEB"/>
<path d="M432.711 103.026L424.607 102.13C424.81 93.0622 424.144 84.638 422.625 77.6241C420.179 66.3365 415.88 60.0375 410.195 59.4084L402.681 58.5772C399.86 52.3125 396.139 48.7167 391.799 48.2366L382.484 47.2061C379.697 42.5875 376.315 39.9287 372.496 39.5062L358.079 37.9111C358.045 37.9074 358.013 37.9123 357.98 37.9102C357.931 37.904 357.884 37.8895 357.835 37.8841C350.838 37.11 343.628 43.9294 337.534 57.0863C332.998 66.8797 329.381 79.4147 327.053 93.1762L158.431 74.5207L118.17 70.0664C118.907 56.1288 118.118 43.1064 115.832 32.5583C112.761 18.3876 107.217 10.157 100.22 9.38288C100.171 9.37745 100.121 9.38121 100.072 9.37656C100.039 9.37134 100.009 9.35957 99.9757 9.35588L85.5581 7.76078C81.7391 7.33827 77.8579 9.19375 74.1283 13.0911L64.8142 12.0607C60.4742 11.5805 56.0563 14.276 51.9342 19.7723L44.4208 18.9411C38.7348 18.312 33.1636 23.519 28.3094 33.999C25.2929 40.511 22.8023 48.5861 21.0182 57.4787L15.0616 56.8197C11.0096 56.3714 8.4472 62.9385 7.70517 69.6455C6.96314 76.3525 8.02807 83.3209 12.08 83.7692L18.0366 84.4282C17.8337 93.4958 18.4989 101.92 20.019 108.934C22.4649 120.222 26.7633 126.52 32.4492 127.15L39.9626 127.981C42.7833 134.245 46.5054 137.841 50.8454 138.321L60.1592 139.352C62.9467 143.97 66.3285 146.629 70.1474 147.052L84.565 148.647C84.5984 148.651 84.6305 148.646 84.6636 148.648C84.7124 148.654 84.76 148.668 84.8091 148.674C91.8059 149.448 99.0157 142.628 105.11 129.472C109.646 119.678 113.263 107.143 115.59 93.382L155.852 97.8363L324.474 116.492C323.737 130.429 324.526 143.452 326.812 154C329.883 168.17 335.427 176.401 342.424 177.175C342.473 177.181 342.522 177.177 342.572 177.182C342.604 177.187 342.635 177.198 342.668 177.202L357.086 178.797C360.904 179.22 364.786 177.364 368.515 173.467L377.83 174.497C382.17 174.978 386.588 172.282 390.71 166.786L398.223 167.617C403.909 168.246 409.48 163.039 414.334 152.559C417.35 146.047 419.841 137.972 421.625 129.079L429.729 129.976C433.781 130.424 436.343 123.857 437.085 117.15C437.827 110.443 436.763 103.475 432.711 103.026ZM431.088 127.592C431.013 127.645 430.938 127.688 430.863 127.729C430.812 127.756 430.761 127.786 430.711 127.809C430.626 127.846 430.542 127.87 430.458 127.892C430.416 127.903 430.374 127.92 430.333 127.927C430.206 127.948 430.08 127.955 429.955 127.941L422.014 127.063C422.575 124.048 423.056 120.95 423.448 117.791C423.535 117.086 423.621 116.38 423.7 115.669C423.961 113.311 424.163 110.972 424.316 108.66C424.415 107.154 424.491 105.661 424.545 104.182L432.486 105.061C432.631 105.077 432.77 105.121 432.906 105.184C432.947 105.202 432.985 105.232 433.025 105.255C433.119 105.308 433.212 105.368 433.301 105.444C433.342 105.479 433.382 105.52 433.423 105.56C433.508 105.644 433.592 105.737 433.672 105.841C433.707 105.886 433.74 105.932 433.774 105.98C433.86 106.104 433.943 106.241 434.022 106.388C434.045 106.429 434.068 106.468 434.09 106.511C434.189 106.706 434.283 106.916 434.371 107.145C434.37 107.145 434.371 107.145 434.371 107.146C435.196 109.303 435.502 112.908 435.057 116.926C434.944 117.945 434.786 118.924 434.598 119.855C434.584 119.924 434.571 119.994 434.557 120.062C434.506 120.307 434.452 120.546 434.396 120.783C434.376 120.869 434.356 120.955 434.335 121.039C434.28 121.265 434.223 121.486 434.163 121.704C434.139 121.793 434.115 121.88 434.091 121.967C434.031 122.178 433.97 122.385 433.907 122.587C433.88 122.675 433.852 122.76 433.824 122.847C433.76 123.043 433.696 123.237 433.629 123.424C433.6 123.505 433.57 123.583 433.541 123.662C433.472 123.848 433.403 124.032 433.332 124.208C433.307 124.269 433.281 124.324 433.256 124.384C433.1 124.754 432.939 125.102 432.772 125.423C432.751 125.463 432.731 125.508 432.71 125.547C432.649 125.66 432.587 125.762 432.526 125.868C432.471 125.963 432.416 126.06 432.36 126.149C432.302 126.241 432.244 126.325 432.185 126.411C432.123 126.5 432.062 126.59 432 126.673C431.943 126.748 431.885 126.817 431.828 126.887C431.762 126.966 431.696 127.043 431.629 127.114C431.573 127.174 431.517 127.23 431.461 127.283C431.391 127.35 431.321 127.411 431.25 127.468C431.196 127.511 431.142 127.554 431.088 127.592ZM403.653 163.982C403.472 164.11 403.291 164.235 403.11 164.348C402.995 164.419 402.879 164.483 402.764 164.549C402.592 164.648 402.419 164.742 402.246 164.827C402.128 164.885 402.01 164.939 401.892 164.99C401.721 165.066 401.549 165.134 401.377 165.196C401.26 165.238 401.143 165.279 401.026 165.315C400.849 165.369 400.672 165.412 400.496 165.451C400.385 165.476 400.274 165.504 400.164 165.523C399.97 165.556 399.776 165.573 399.582 165.588C399.489 165.595 399.397 165.609 399.304 165.612C399.018 165.621 398.733 165.614 398.448 165.583L392.061 164.876C393.551 162.63 394.995 160.01 396.374 157.033C400.521 148.079 403.819 136.597 405.923 123.999C406.476 120.686 406.951 117.301 407.332 113.858C408.465 103.622 408.723 93.6654 408.131 84.6733C407.766 79.1406 407.082 73.9716 406.076 69.3327C405.381 66.1255 404.545 63.2538 403.583 60.7363L409.969 61.4429C410.315 61.4811 410.654 61.5572 410.988 61.6543C411.092 61.6844 411.194 61.7256 411.297 61.7612C411.529 61.8418 411.759 61.9341 411.986 62.0426C412.096 62.0958 412.207 62.1516 412.316 62.2114C412.544 62.3357 412.767 62.4764 412.989 62.6287C413.08 62.6914 413.172 62.7481 413.262 62.8153C413.569 63.0449 413.87 63.2952 414.164 63.578C414.178 63.5909 414.19 63.6063 414.203 63.6192C414.483 63.8917 414.757 64.1923 415.025 64.5117C415.107 64.6104 415.188 64.7174 415.269 64.8204C415.469 65.0728 415.666 65.3363 415.859 65.6146C415.944 65.7374 416.029 65.8615 416.112 65.9893C416.311 66.2931 416.506 66.6126 416.697 66.944C416.759 67.0516 416.822 67.1537 416.884 67.264C417.137 67.7214 417.384 68.1987 417.622 68.7037C417.628 68.7166 417.634 68.7306 417.639 68.7435C417.868 69.2296 418.087 69.7413 418.301 70.2697C418.358 70.4079 418.411 70.5514 418.466 70.6923C418.632 71.1182 418.794 71.5559 418.951 72.0068C419.006 72.1643 419.061 72.3217 419.114 72.4821C419.281 72.9808 419.442 73.494 419.598 74.0208C419.629 74.1274 419.662 74.2302 419.693 74.3382C420.07 75.6441 420.411 77.0349 420.718 78.4992C420.75 78.6525 420.781 78.8093 420.812 78.9644C420.931 79.5539 421.045 80.1547 421.153 80.7673C421.184 80.9417 421.215 81.1155 421.244 81.2918C421.36 81.9747 421.469 82.6699 421.57 83.3794C421.582 83.4647 421.595 83.5473 421.608 83.6329C421.724 84.471 421.832 85.3256 421.929 86.1985C421.929 86.1993 421.929 86.1997 421.929 86.2005C422.871 94.6787 422.855 104.743 421.671 115.445C421.286 118.927 420.793 122.313 420.21 125.58C420.21 125.581 420.21 125.583 420.209 125.584C420.108 126.15 420.002 126.71 419.895 127.269C419.854 127.486 419.814 127.705 419.772 127.921C419.671 128.435 419.567 128.944 419.462 129.452C419.409 129.706 419.357 129.96 419.304 130.211C419.2 130.702 419.093 131.189 418.984 131.673C418.927 131.929 418.869 132.185 418.81 132.439C418.7 132.919 418.588 133.395 418.474 133.867C418.414 134.115 418.353 134.359 418.292 134.604C418.174 135.079 418.056 135.552 417.934 136.019C417.877 136.238 417.818 136.454 417.76 136.671C417.63 137.159 417.5 137.646 417.366 138.125C417.336 138.232 417.305 138.335 417.275 138.44C416.802 140.112 416.304 141.725 415.784 143.278C415.716 143.484 415.648 143.693 415.578 143.897C415.443 144.291 415.306 144.677 415.168 145.062C415.084 145.3 414.999 145.538 414.914 145.773C414.779 146.139 414.644 146.5 414.507 146.858C414.414 147.102 414.321 147.344 414.228 147.584C414.093 147.927 413.958 148.266 413.821 148.602C413.722 148.847 413.621 149.088 413.52 149.328C413.385 149.651 413.249 149.972 413.112 150.287C413.007 150.527 412.901 150.761 412.796 150.997C412.659 151.302 412.522 151.609 412.383 151.907C412.273 152.142 412.161 152.368 412.05 152.598C411.911 152.886 411.772 153.179 411.631 153.459C411.396 153.928 411.158 154.386 410.918 154.831C410.792 155.065 410.664 155.286 410.537 155.513C410.403 155.753 410.27 155.995 410.135 156.226C410.007 156.446 409.877 156.657 409.748 156.87C409.611 157.096 409.474 157.322 409.337 157.54C409.208 157.743 409.079 157.939 408.949 158.135C408.808 158.35 408.666 158.562 408.523 158.769C408.396 158.953 408.268 159.134 408.14 159.312C407.992 159.516 407.844 159.715 407.695 159.911C407.57 160.076 407.445 160.239 407.32 160.397C407.163 160.595 407.005 160.783 406.848 160.97C406.728 161.111 406.61 161.255 406.49 161.39C406.312 161.592 406.132 161.78 405.953 161.968C405.853 162.073 405.753 162.185 405.653 162.285C405.376 162.563 405.098 162.826 404.82 163.071C404.756 163.127 404.692 163.174 404.628 163.228C404.408 163.415 404.188 163.596 403.967 163.762C403.863 163.84 403.758 163.908 403.653 163.982ZM384.227 170.542C384.016 170.691 383.806 170.833 383.596 170.966C383.478 171.041 383.36 171.115 383.242 171.184C383 171.326 382.758 171.455 382.516 171.574C382.435 171.614 382.355 171.66 382.274 171.697C381.954 171.845 381.635 171.972 381.315 172.079C381.229 172.108 381.142 172.129 381.056 172.155C380.816 172.228 380.575 172.291 380.335 172.341C380.225 172.363 380.116 172.382 380.006 172.4C379.778 172.437 379.549 172.462 379.321 172.477C379.221 172.484 379.121 172.494 379.02 172.497C378.698 172.505 378.376 172.499 378.054 172.463L370.18 171.592C372.691 168.515 375.116 164.496 377.386 159.595C380.889 152.034 383.841 142.835 386.079 132.705C387.538 126.098 388.696 119.098 389.494 111.885C391.144 96.9718 391.118 82.5937 389.469 70.4958C389.097 67.7693 388.644 65.1564 388.108 62.6816C386.965 57.4031 385.477 52.9518 383.699 49.3998L391.573 50.2708C391.94 50.3113 392.3 50.3831 392.656 50.4799C392.769 50.5106 392.879 50.5595 392.992 50.5962C393.231 50.6739 393.471 50.7517 393.705 50.8547C393.837 50.9128 393.965 50.9884 394.096 51.0543C394.305 51.1604 394.515 51.2656 394.72 51.3918C394.855 51.4748 394.987 51.5731 395.12 51.6649C395.315 51.7995 395.51 51.9342 395.702 52.0871C395.834 52.1933 395.964 52.3116 396.094 52.4264C396.281 52.5902 396.466 52.7565 396.648 52.9377C396.776 53.0645 396.9 53.2009 397.026 53.3361C397.205 53.53 397.384 53.7282 397.559 53.9392C397.68 54.085 397.798 54.2375 397.917 54.3912C398.091 54.6161 398.263 54.8477 398.433 55.0895C398.546 55.251 398.657 55.4168 398.768 55.5861C398.938 55.844 399.105 56.1107 399.269 56.3857C399.374 56.5602 399.477 56.7367 399.58 56.9179C399.746 57.2121 399.909 57.5168 400.069 57.8284C400.163 58.0108 400.257 58.1922 400.349 58.3803C400.513 58.7159 400.674 59.0646 400.832 59.4188C400.914 59.6025 400.997 59.7836 401.077 59.9723C401.241 60.3565 401.401 60.7552 401.558 61.1591C401.626 61.3362 401.697 61.5083 401.764 61.6888C401.933 62.1401 402.095 62.6076 402.255 63.0814C402.305 63.2297 402.358 63.3725 402.407 63.5229C402.589 64.0794 402.764 64.6537 402.935 65.2398C402.958 65.3196 402.983 65.3951 403.006 65.4755C406.364 77.1878 407.415 94.5491 405.303 113.634C403.852 126.756 401.116 138.747 397.653 148.442C397.647 148.461 397.64 148.479 397.634 148.497C396.792 150.848 395.909 153.063 394.989 155.125C394.942 155.232 394.894 155.34 394.846 155.446C394.644 155.895 394.44 156.336 394.235 156.77C394.179 156.888 394.122 157.003 394.066 157.12C393.44 158.423 392.8 159.654 392.148 160.811C392.056 160.974 391.965 161.139 391.873 161.298C391.696 161.605 391.518 161.903 391.339 162.199C391.221 162.394 391.103 162.587 390.984 162.777C390.814 163.05 390.644 163.321 390.472 163.583C390.335 163.793 390.197 163.994 390.058 164.198C389.821 164.547 389.583 164.887 389.344 165.216C389.149 165.484 388.954 165.751 388.759 166.005C388.614 166.193 388.468 166.371 388.322 166.551C388.154 166.759 387.987 166.964 387.818 167.162C387.675 167.33 387.531 167.494 387.387 167.655C387.205 167.858 387.022 168.053 386.84 168.244C386.71 168.38 386.58 168.519 386.45 168.649C386.15 168.948 385.848 169.235 385.545 169.501C385.466 169.571 385.387 169.631 385.308 169.698C385.066 169.903 384.825 170.101 384.582 170.284C384.464 170.374 384.345 170.457 384.227 170.542ZM364.2 174.597C363.935 174.788 363.67 174.966 363.404 175.133C363.321 175.185 363.238 175.243 363.155 175.292C362.817 175.495 362.479 175.674 362.141 175.837C362.042 175.884 361.943 175.926 361.844 175.97C361.574 176.09 361.304 176.198 361.034 176.293C360.942 176.325 360.849 176.361 360.757 176.39C360.411 176.5 360.066 176.591 359.72 176.657C359.652 176.67 359.585 176.676 359.518 176.687C359.228 176.736 358.938 176.769 358.649 176.786C358.552 176.792 358.456 176.798 358.36 176.8C358.01 176.808 357.66 176.802 357.311 176.763L348.788 175.82C353.676 173.238 358.472 167.155 362.725 157.973C365.056 152.941 367.141 147.176 368.938 140.903C371.601 131.604 373.626 121.175 374.833 110.263C376.855 91.9886 376.363 74.5146 373.447 61.0596C373.324 60.4891 373.19 59.9446 373.058 59.3935C370.908 50.391 367.711 43.9789 363.749 40.5978L372.272 41.5407C372.651 41.5827 373.025 41.6546 373.393 41.7511C373.517 41.7834 373.637 41.8339 373.759 41.872C374.002 41.9482 374.246 42.0234 374.484 42.1231C374.626 42.1825 374.765 42.2595 374.905 42.3273C375.118 42.43 375.332 42.5305 375.541 42.6517C375.688 42.7376 375.833 42.8391 375.978 42.9341C376.174 43.0619 376.371 43.189 376.563 43.3336C376.711 43.4447 376.855 43.5688 377.001 43.6895C377.186 43.8427 377.37 43.9969 377.551 44.1653C377.696 44.3004 377.839 44.4461 377.981 44.5908C378.157 44.7688 378.331 44.9496 378.503 45.142C378.645 45.3007 378.784 45.4671 378.923 45.6355C379.09 45.8376 379.256 46.0446 379.419 46.2607C379.556 46.4412 379.69 46.6276 379.825 46.8175C379.984 47.0442 380.142 47.2776 380.298 47.5175C380.429 47.7191 380.559 47.9239 380.687 48.1348C380.84 48.3857 380.99 48.6449 381.139 48.9087C381.263 49.1301 381.388 49.3524 381.51 49.5826C381.656 49.8587 381.799 50.1449 381.942 50.4334C382.059 50.672 382.177 50.9093 382.292 51.1563C382.433 51.4584 382.569 51.7725 382.705 52.0872C382.815 52.3413 382.926 52.5921 383.034 52.8541C383.169 53.1854 383.3 53.5301 383.431 53.8738C383.532 54.1383 383.635 54.3978 383.733 54.6696C383.866 55.0362 383.992 55.4173 384.12 55.7967C384.21 56.0652 384.303 56.3272 384.391 56.6023C384.527 57.0285 384.656 57.4714 384.787 57.9128C384.859 58.1573 384.934 58.3933 385.004 58.6424C385.2 59.3372 385.389 60.0483 385.571 60.7777C388.769 73.6515 389.662 91.8159 387.466 111.66C386.233 122.803 384.161 133.206 381.535 142.296C381.535 142.297 381.535 142.297 381.535 142.297C380.193 146.94 378.707 151.234 377.11 155.107C377.084 155.17 377.058 155.234 377.032 155.297C376.388 156.851 375.726 158.335 375.049 159.745C374.992 159.864 374.935 159.984 374.877 160.102C374.665 160.539 374.451 160.972 374.235 161.395C374.196 161.472 374.156 161.546 374.116 161.624C373.722 162.391 373.322 163.131 372.919 163.847C372.828 164.01 372.737 164.174 372.645 164.334C372.452 164.669 372.258 164.998 372.063 165.322C371.945 165.517 371.827 165.707 371.709 165.898C371.413 166.376 371.115 166.839 370.816 167.288C370.659 167.523 370.503 167.76 370.345 167.987C370.176 168.231 370.006 168.466 369.836 168.701C369.673 168.926 369.509 169.147 369.344 169.364C369.186 169.572 369.028 169.782 368.87 169.983C368.578 170.351 368.285 170.707 367.991 171.047C367.856 171.204 367.72 171.35 367.584 171.5C367.378 171.73 367.17 171.954 366.963 172.17C366.825 172.313 366.687 172.455 366.549 172.592C366.269 172.869 365.989 173.134 365.708 173.385C365.599 173.482 365.49 173.576 365.38 173.669C365.107 173.903 364.833 174.124 364.558 174.333C364.439 174.424 364.319 174.511 364.2 174.597ZM63.8309 141.062C63.609 140.798 63.3904 140.523 63.1752 140.235C63.0885 140.12 63.0022 140.004 62.9166 139.885C62.6978 139.579 62.4826 139.26 62.2709 138.93C62.1653 138.765 62.0612 138.595 61.9573 138.424C61.8025 138.17 61.6502 137.908 61.4994 137.64C61.3993 137.462 61.2979 137.288 61.1992 137.104C60.9873 136.708 60.7796 136.298 60.5763 135.876C60.4643 135.644 60.3556 135.403 60.2463 135.164C60.1342 134.918 60.0236 134.669 59.9142 134.416C59.7986 134.148 59.6837 133.88 59.5709 133.603C59.4694 133.353 59.3712 133.094 59.2722 132.837C59.0759 132.328 58.8845 131.805 58.6984 131.268C58.6246 131.056 58.5504 130.844 58.4783 130.627C58.3589 130.269 58.2417 129.907 58.1269 129.538C58.0721 129.362 58.0191 129.181 57.9652 129.002C57.7271 128.212 57.4982 127.398 57.28 126.559C57.2594 126.48 57.2381 126.404 57.2178 126.324C57.0992 125.863 56.9849 125.392 56.8724 124.917C56.8429 124.791 56.8138 124.664 56.7846 124.538C56.4319 123.012 56.1107 121.419 55.8215 119.76C55.8097 119.693 55.7979 119.625 55.7862 119.558C55.0749 115.429 54.5633 110.914 54.2692 106.091C54.2691 106.09 54.2691 106.09 54.2692 106.09C53.6931 96.645 53.9453 86.041 55.1781 74.8981C57.3751 55.04 62.2223 37.5 68.1628 25.6364C68.495 24.9731 68.8309 24.3279 69.1697 23.7007C69.2928 23.4728 69.4181 23.2591 69.5418 23.0363C69.765 22.634 69.9881 22.2301 70.2143 21.844C70.3609 21.5935 70.5092 21.3573 70.6568 21.1139C70.8633 20.7733 71.0692 20.4304 71.2775 20.1033C71.4346 19.8572 71.5932 19.624 71.751 19.3855C71.9526 19.0812 72.1538 18.776 72.3569 18.4848C72.5203 18.2506 72.6847 18.0282 72.849 17.8027C73.0497 17.5271 73.2501 17.2523 73.4521 16.9896C73.6189 16.773 73.7861 16.5664 73.9537 16.3586C74.1555 16.1084 74.3573 15.8607 74.5603 15.6236C74.7296 15.4257 74.8998 15.236 75.0699 15.0472C75.2729 14.8223 75.4758 14.6022 75.6796 14.3906C75.8508 14.2129 76.0224 14.0414 76.1944 13.8734C76.399 13.6734 76.604 13.4802 76.8093 13.2938C76.9816 13.1376 77.1538 12.9854 77.3268 12.8392C77.5337 12.664 77.7406 12.498 77.9479 12.3373C78.1201 12.2038 78.2921 12.0718 78.4645 11.9483C78.6749 11.7977 78.885 11.6591 79.0959 11.5235C79.2662 11.4137 79.4364 11.3032 79.607 11.2035C79.821 11.0782 80.0352 10.9679 80.2496 10.8584C80.4174 10.7729 80.5851 10.6835 80.7533 10.6077C80.9731 10.5087 81.1929 10.4273 81.4129 10.3451C81.5754 10.2843 81.7378 10.2172 81.9002 10.1659C82.1312 10.0929 82.3618 10.0413 82.5927 9.98754C82.7442 9.95223 82.8959 9.90753 83.0472 9.88082C83.3021 9.83552 83.5564 9.81539 83.811 9.79429C83.9382 9.78373 84.0657 9.76079 84.1929 9.75623C84.5738 9.7427 84.9541 9.75413 85.3337 9.79613L93.8567 10.7391C89.2507 13.1722 84.7289 18.7303 80.6639 27.0453C80.4149 27.5543 80.165 28.0564 79.9199 28.586C74.1336 41.0782 69.8334 58.0221 67.8116 76.2964C66.6043 87.2086 66.3007 97.8277 66.8671 107.484C67.2491 113.998 68.0232 120.079 69.1978 125.5C71.3407 135.389 74.6911 142.373 78.8966 145.962L70.3735 145.019C70.0245 144.98 69.6819 144.91 69.342 144.825C69.2487 144.802 69.1562 144.775 69.0634 144.749C68.7847 144.668 68.5092 144.573 68.2369 144.463C68.1732 144.437 68.1088 144.416 68.0455 144.389C67.7231 144.248 67.4057 144.084 67.0926 143.902C67.0087 143.853 66.9265 143.798 66.8434 143.746C66.6005 143.595 66.3604 143.431 66.1233 143.254C66.0363 143.19 65.949 143.127 65.863 143.059C65.5682 142.827 65.2774 142.578 64.9921 142.306C64.9217 142.24 64.8537 142.165 64.7838 142.096C64.5612 141.875 64.3416 141.644 64.125 141.4C64.0258 141.288 63.9279 141.177 63.8309 141.062ZM51.0704 136.287C50.6861 136.245 50.309 136.165 49.9367 136.061C49.8187 136.028 49.7037 135.979 49.5868 135.94C49.3337 135.855 49.0822 135.764 48.8352 135.651C48.7031 135.59 48.5736 135.519 48.4432 135.45C48.2142 135.33 47.9872 135.201 47.7635 135.057C47.635 134.974 47.5079 134.887 47.3811 134.796C47.1555 134.635 46.9334 134.46 46.7137 134.274C46.5992 134.177 46.4849 134.082 46.3722 133.979C46.1313 133.758 45.895 133.518 45.661 133.268C45.5775 133.178 45.4922 133.095 45.4096 133.002C44.4393 131.908 43.536 130.559 42.7031 128.983C42.663 128.907 42.6246 128.827 42.5846 128.75C42.3475 128.291 42.1164 127.815 41.8913 127.319C41.8471 127.222 41.8038 127.122 41.7601 127.024C41.537 126.52 41.3204 126 41.11 125.461C41.0763 125.375 41.0429 125.291 41.0099 125.205C40.7793 124.602 40.5557 123.981 40.3403 123.337C40.3329 123.315 40.3253 123.294 40.3178 123.272C39.1535 119.775 38.2199 115.678 37.5412 111.108C37.541 111.106 37.5406 111.105 37.5402 111.103C35.954 100.415 35.7656 87.1529 37.3397 72.9243C39.1667 56.411 43.024 41.682 47.8106 31.0813C47.8111 31.0801 47.8117 31.079 47.8122 31.0779C48.7476 29.0066 49.7176 27.0936 50.7159 25.3562C50.7169 25.3543 50.7181 25.3522 50.7193 25.3504C51.0476 24.7791 51.3787 24.2269 51.7126 23.6945C51.7189 23.6842 51.7251 23.6737 51.7316 23.6636C52.0577 23.1443 52.3862 22.6447 52.7172 22.1636C52.7322 22.1415 52.7472 22.1183 52.7624 22.0963C53.0849 21.6297 53.4091 21.1832 53.7354 20.754C53.7592 20.7226 53.7829 20.689 53.8067 20.6578C54.1226 20.2451 54.4405 19.8527 54.7596 19.4759C54.7945 19.4345 54.8294 19.3901 54.8645 19.3491C55.1727 18.9893 55.4826 18.6507 55.7935 18.325C55.8395 18.2766 55.8853 18.224 55.9315 18.1764C56.2295 17.8695 56.5291 17.5845 56.8292 17.3103C56.8888 17.2558 56.948 17.1952 57.0076 17.1419C57.2944 16.8865 57.582 16.6533 57.8701 16.4281C57.9432 16.3709 58.016 16.3062 58.0893 16.251C58.3647 16.0434 58.6409 15.8589 58.9174 15.6798C59.0033 15.624 59.0883 15.5597 59.1742 15.5067C59.4387 15.3439 59.7037 15.2052 59.969 15.0691C60.0662 15.019 60.1638 14.9589 60.2612 14.9124C60.5176 14.7902 60.7743 14.6938 61.0306 14.5972C61.1363 14.5576 61.2416 14.5064 61.3474 14.471C61.6023 14.3859 61.857 14.3274 62.1118 14.2682C62.2184 14.2434 62.325 14.2059 62.4317 14.1859C62.6967 14.1355 62.9614 14.1133 63.2262 14.0919C63.3217 14.0841 63.4177 14.0634 63.513 14.0594C63.8724 14.0444 64.2312 14.0555 64.5892 14.0951L72.4632 14.9662L72.4632 14.9665C69.9523 18.0438 67.5271 22.0622 65.257 26.9632C64.4094 28.7936 63.5976 30.7301 62.8162 32.7416C58.264 44.4598 54.8745 59.0767 53.149 74.6736C51.6455 88.2633 51.5348 101.407 52.7747 112.788C53.2021 116.711 53.7877 120.428 54.535 123.877C55.6788 129.155 57.167 133.607 58.9445 137.159L51.0704 136.287ZM20.9723 71.1133C22.5454 56.8941 25.8842 44.2237 30.0223 35.1698C30.0226 35.1692 30.0226 35.1688 30.0229 35.1685C31.3444 32.2772 32.7469 29.7548 34.2003 27.67C34.201 27.6688 34.2019 27.6675 34.2026 27.6666C34.4882 27.257 34.7757 26.8649 35.065 26.4895C35.0707 26.4817 35.0768 26.4734 35.0829 26.4657C35.3642 26.1015 35.6472 25.7551 35.9315 25.4242C35.9459 25.4078 35.9599 25.3893 35.9741 25.3729C36.2467 25.0576 36.5205 24.761 36.7954 24.4772C36.822 24.4497 36.8484 24.4186 36.8752 24.3915C37.1397 24.1216 37.4053 23.8714 37.6713 23.6316C37.7083 23.5981 37.7453 23.5599 37.7825 23.5272C38.0387 23.3004 38.2962 23.094 38.5538 22.8958C38.6007 22.8595 38.6476 22.817 38.6948 22.7816C38.9385 22.5993 39.183 22.4381 39.4274 22.2821C39.4893 22.2424 39.5506 22.1956 39.6123 22.1575C39.8445 22.0158 40.0771 21.8957 40.3098 21.7781C40.3834 21.7408 40.4571 21.6942 40.5309 21.6593C40.7555 21.5532 40.9804 21.4698 41.2055 21.3867C41.2869 21.3567 41.3683 21.3164 41.4498 21.2894C41.6675 21.2171 41.885 21.1683 42.1026 21.1185C42.1912 21.098 42.2799 21.0666 42.3682 21.0499C42.5895 21.0083 42.8108 20.9909 43.0318 20.9731C43.1159 20.9662 43.2 20.9481 43.2839 20.9445C43.5884 20.9322 43.8925 20.942 44.1956 20.9755L50.5819 21.6821C49.0925 23.9283 47.6487 26.5477 46.2695 29.5255C45.2399 31.7482 44.2644 34.1314 43.3443 36.6437C39.5835 46.9121 36.7807 59.4158 35.311 72.6997C34.0575 84.0296 33.8732 95.0196 34.7301 104.735C35.1236 109.198 35.736 113.392 36.5668 117.225C37.2619 120.432 38.098 123.304 39.0604 125.822L32.6741 125.115C32.6721 125.115 32.6704 125.114 32.6684 125.114C32.3409 125.078 32.0191 125.009 31.7018 124.92C31.5992 124.891 31.4994 124.849 31.3977 124.815C31.1817 124.742 30.9673 124.663 30.7564 124.566C30.6423 124.514 30.5301 124.452 30.4174 124.393C30.2213 124.289 30.0274 124.178 29.836 124.053C29.7255 123.982 29.6155 123.907 29.5064 123.828C29.312 123.688 29.1206 123.535 28.9314 123.373C28.8347 123.291 28.7371 123.211 28.6416 123.123C28.4254 122.923 28.2137 122.706 28.0044 122.479C27.9422 122.411 27.8778 122.35 27.8162 122.28C27.2636 121.652 26.7367 120.926 26.2361 120.112C26.1926 120.041 26.1506 119.964 26.1077 119.891C25.9031 119.549 25.7026 119.193 25.5073 118.82C25.4544 118.719 25.4025 118.614 25.3501 118.51C25.165 118.145 24.9841 117.767 24.8078 117.375C24.7603 117.269 24.7129 117.163 24.6659 117.055C24.4798 116.628 24.2992 116.186 24.1234 115.73C24.0939 115.653 24.0634 115.579 24.0343 115.501C23.191 113.268 22.4704 110.699 21.8819 107.848C21.8722 107.802 21.8631 107.755 21.8536 107.708C21.7166 107.037 21.587 106.351 21.4647 105.649C21.4552 105.594 21.4453 105.539 21.4359 105.484C21.3093 104.748 21.1905 103.999 21.0806 103.232C21.0803 103.23 21.0798 103.227 21.0794 103.225C19.786 94.1914 19.6516 83.0506 20.9723 71.1133ZM10.9783 80.7623C10.9354 80.6984 10.8936 80.6321 10.8524 80.5625C10.8026 80.4779 10.7541 80.3876 10.7067 80.2946C10.6661 80.2152 10.6257 80.1361 10.587 80.0509C10.5436 79.9556 10.503 79.8533 10.4622 79.7511C10.4242 79.6556 10.3854 79.5626 10.3495 79.4612C10.3135 79.3599 10.2811 79.251 10.2474 79.1439C10.2113 79.0294 10.1736 78.9189 10.1399 78.7978C10.1248 78.7427 10.1118 78.6817 10.0972 78.6255C10.0094 78.2907 9.93191 77.9335 9.86377 77.5564C9.85142 77.4876 9.83707 77.4223 9.82529 77.3519C9.79472 77.1697 9.76886 76.9792 9.74304 76.7883C9.73082 76.6984 9.71734 76.6108 9.70632 76.519C9.68263 76.3252 9.66298 76.1255 9.64393 75.9239C9.6351 75.8304 9.62601 75.7375 9.61817 75.6423C9.60136 75.435 9.58743 75.2234 9.57562 75.0088C9.57038 74.9135 9.56539 74.8178 9.5611 74.7212C9.55113 74.499 9.54381 74.2745 9.53917 74.0457C9.5374 73.9551 9.5367 73.8639 9.53583 73.7725C9.5334 73.5327 9.53251 73.2917 9.53599 73.0454C9.53697 72.968 9.53993 72.8888 9.54159 72.8107C9.54744 72.5448 9.55436 72.2782 9.56732 72.0058C9.56729 72.0042 9.56747 72.0026 9.56745 72.001L9.56765 72.0011C9.60046 71.3073 9.65354 70.5965 9.73391 69.87C10.1784 65.8521 11.2649 62.4011 12.5413 60.4765C12.5413 60.4763 12.5416 60.4762 12.5416 60.476C12.6773 60.2715 12.8151 60.0871 12.9546 59.9185C12.9853 59.8812 13.0161 59.8484 13.0467 59.8129C13.1567 59.6871 13.2669 59.5721 13.3785 59.4699C13.4218 59.43 13.465 59.3923 13.5085 59.3561C13.6095 59.272 13.7111 59.2001 13.8132 59.1367C13.8613 59.1065 13.9091 59.0748 13.9575 59.0495C14.0607 58.9954 14.1642 58.9574 14.2676 58.9256C14.3118 58.9119 14.3558 58.8917 14.3996 58.8823C14.5456 58.8512 14.6915 58.8381 14.8365 58.8542L20.6301 59.4951C20.3595 60.9498 20.1077 62.4231 19.8753 63.9145C19.5189 66.2046 19.2044 68.5307 18.9436 70.8889C18.865 71.5993 18.7946 72.3071 18.7262 73.0143C18.418 76.1825 18.2103 79.311 18.0987 82.3757L12.3051 81.7348C12.1796 81.7209 12.058 81.6864 11.9396 81.6377C11.9004 81.6217 11.8635 81.596 11.8251 81.5763C11.7476 81.5365 11.6706 81.4945 11.5962 81.4398C11.5516 81.4071 11.509 81.3665 11.4657 81.3287C11.401 81.2723 11.3371 81.2139 11.2751 81.1462C11.2308 81.0976 11.1878 81.044 11.1448 80.99C11.088 80.9186 11.0324 80.8432 10.9783 80.7623ZM85.0342 146.64C72.5111 145.254 65.7083 113.86 69.8395 76.5197C73.9707 39.1791 87.4716 10.0317 99.9945 11.4171C111.183 12.655 117.799 37.8543 116.136 69.8411L115.627 69.7848C116.086 58.7373 115.389 48.4427 113.563 40.0158C110.949 27.9547 106.188 20.9448 100.156 20.2774C94.1237 19.6101 87.9449 25.4096 82.758 36.6077C77.879 47.1412 74.2538 61.422 72.5503 76.8197C70.8468 92.2173 71.2626 106.945 73.7211 118.29C76.3347 130.352 81.0961 137.361 87.1285 138.029C93.1608 138.696 99.3392 132.897 104.526 121.699C108.15 113.875 111.08 103.981 113.047 93.1006L113.557 93.157C108.187 124.734 96.223 147.878 85.0342 146.64ZM96.6439 92.7641C95.2162 92.6061 94.1766 90.4293 93.7204 87.1978C94.3089 89.4803 95.4415 91.1529 97.3532 91.3644L98.8169 91.5263C98.1109 92.387 97.3692 92.8443 96.6439 92.7641ZM99.5466 66.5276C100.272 66.6078 100.896 67.2162 101.396 68.2106L99.9328 68.0487C98.021 67.8372 96.5503 69.2215 95.477 71.3202C96.6284 68.2665 98.1189 66.3696 99.5466 66.5276ZM99.7717 64.4933C95.3308 64.002 92.5013 71.3925 91.6669 78.9348C90.8324 86.4771 91.978 94.3074 96.4188 94.7987C98.2917 95.0059 99.874 93.8009 101.145 91.7841L102.335 91.9157C99.7116 101.881 95.5308 108.579 91.5765 108.141C86.2304 107.55 83.3263 94.1481 85.0899 78.2072C86.8536 62.2662 92.617 49.8233 97.9631 50.4148C101.917 50.8523 104.533 58.3019 104.915 68.5999L103.724 68.4682C102.925 66.2222 101.645 64.7005 99.7717 64.4933ZM98.1883 48.3804C90.5015 47.5299 84.7601 62.6284 83.0614 77.9826C81.3627 93.3367 83.6648 109.325 91.3516 110.176C97.0537 110.806 101.683 102.659 104.388 92.1427L111.012 92.8755C106.354 118.476 96.5415 137.011 87.3535 135.994C76.8253 134.83 71.1059 108.437 74.5791 77.0441C78.0522 45.6515 89.4026 21.1469 99.9308 22.3117C109.119 23.3282 114.643 43.5603 113.592 69.5596L106.968 68.8268C106.627 57.974 103.89 49.0112 98.1883 48.3804ZM97.5781 89.3301C97.4727 89.3184 97.3705 89.2893 97.2709 89.2486C97.2375 89.2349 97.2064 89.2131 97.1735 89.1962C97.1087 89.1626 97.0441 89.1276 96.9816 89.0818C96.9443 89.0543 96.9085 89.0203 96.8721 88.9886C96.8178 88.9412 96.7641 88.892 96.7123 88.8354C96.6745 88.7941 96.6378 88.7486 96.6015 88.7025C96.5542 88.643 96.5078 88.5804 96.4627 88.5129C96.4264 88.4589 96.3909 88.4027 96.3561 88.3435C96.3144 88.2726 96.274 88.1973 96.2343 88.1194C96.2 88.0521 96.1656 87.985 96.1331 87.9129C96.0971 87.8338 96.0635 87.7492 96.0296 87.6643C95.9969 87.5826 95.9636 87.5026 95.9328 87.4157C95.9039 87.334 95.8775 87.2458 95.8507 87.1599C95.819 87.0603 95.7861 86.9637 95.7569 86.8581C95.7483 86.827 95.7414 86.7923 95.7329 86.7606C95.653 86.4613 95.5831 86.1396 95.5221 85.7994C95.5127 85.7473 95.5019 85.698 95.4932 85.645C95.4667 85.4872 95.4442 85.3223 95.4218 85.157C95.4124 85.0867 95.4018 85.0182 95.3931 84.9466C95.3729 84.7807 95.3559 84.61 95.3398 84.4374C95.3325 84.3609 95.3251 84.285 95.3189 84.2072C95.3045 84.0306 95.2929 83.8506 95.2825 83.6679C95.2783 83.5903 95.2744 83.5125 95.2709 83.4338C95.2623 83.2458 95.256 83.0561 95.252 82.8624C95.2505 82.7859 95.2501 82.7084 95.2492 82.6312C95.2471 82.4289 95.2463 82.2259 95.2493 82.0184C95.2502 81.956 95.2527 81.8924 95.2541 81.8294C95.2588 81.6039 95.2649 81.3774 95.2757 81.1465C95.2758 81.1451 95.2758 81.1435 95.276 81.1421C95.3036 80.5586 95.3484 79.9605 95.416 79.3496C95.6613 77.1319 96.1408 75.1234 96.7435 73.5427L96.7433 73.5427C96.7436 73.5415 96.7443 73.5408 96.7446 73.5396C97.06 72.7127 97.4084 72.0041 97.7773 71.4483C97.7778 71.4473 97.7784 71.4468 97.7789 71.4459C97.8926 71.2746 98.0082 71.1198 98.1249 70.9783C98.1507 70.9469 98.177 70.9189 98.2031 70.889C98.295 70.7834 98.3878 70.6871 98.4812 70.6013C98.5181 70.5674 98.5545 70.5355 98.5915 70.5048C98.6764 70.4343 98.7617 70.374 98.8471 70.3208C98.8877 70.2954 98.928 70.2687 98.9687 70.2473C99.0556 70.2021 99.1422 70.1702 99.2293 70.1434C99.2665 70.1317 99.3035 70.1147 99.3406 70.1066C99.4633 70.0805 99.5861 70.0695 99.7079 70.083L158.207 76.555L346.197 97.3533C346.198 97.3534 346.198 97.3536 346.198 97.3536C346.32 97.3673 346.437 97.4044 346.551 97.4567C346.586 97.4728 346.618 97.4976 346.652 97.5172C346.731 97.5621 346.808 97.6122 346.883 97.6753C346.918 97.7052 346.952 97.7402 346.986 97.774C347.057 97.8444 347.127 97.9218 347.194 98.0087C347.224 98.047 347.253 98.0863 347.281 98.1277C347.354 98.2316 347.422 98.3454 347.489 98.4681C347.508 98.5035 347.528 98.5369 347.547 98.5738C347.629 98.7364 347.708 98.9117 347.781 99.1026C347.782 99.1047 347.783 99.1064 347.783 99.1087C348.022 99.7323 348.206 100.5 348.334 101.376C348.334 101.377 348.334 101.377 348.334 101.378C348.576 103.052 348.605 105.117 348.36 107.334C348.265 108.193 348.132 109.016 347.974 109.8C347.962 109.857 347.951 109.915 347.939 109.972C347.896 110.18 347.85 110.382 347.803 110.583C347.786 110.653 347.77 110.723 347.754 110.792C347.707 110.983 347.658 111.17 347.608 111.355C347.588 111.429 347.568 111.503 347.547 111.576C347.497 111.753 347.446 111.926 347.393 112.096C347.369 112.171 347.346 112.244 347.322 112.317C347.269 112.481 347.215 112.643 347.16 112.799C347.134 112.869 347.108 112.936 347.083 113.005C347.025 113.16 346.968 113.314 346.908 113.461C346.888 113.511 346.866 113.558 346.845 113.608C346.717 113.913 346.584 114.199 346.447 114.464C346.426 114.504 346.406 114.548 346.385 114.588C346.335 114.681 346.284 114.765 346.233 114.853C346.186 114.934 346.139 115.018 346.091 115.094C346.043 115.17 345.994 115.239 345.945 115.311C345.893 115.387 345.84 115.464 345.787 115.535C345.74 115.597 345.692 115.655 345.645 115.712C345.588 115.78 345.532 115.845 345.475 115.906C345.429 115.956 345.382 116.002 345.335 116.047C345.276 116.103 345.216 116.155 345.157 116.203C345.112 116.239 345.066 116.275 345.021 116.307C344.957 116.351 344.894 116.388 344.83 116.423C344.788 116.445 344.746 116.471 344.704 116.489C344.633 116.52 344.562 116.54 344.491 116.559C344.455 116.568 344.42 116.583 344.385 116.589C344.279 116.607 344.173 116.613 344.067 116.601L156.077 95.8027L97.578 89.3307L97.5781 89.3301ZM346.422 95.3188L342.856 94.9243C344.288 91.6315 346.033 89.6496 347.711 89.8352C350.9 90.1881 352.632 98.182 351.58 107.69C350.528 117.198 347.09 124.62 343.902 124.267C342.223 124.081 340.954 121.766 340.277 118.24L343.842 118.635C347.722 119.064 349.794 112.936 350.389 107.558C350.983 102.18 350.302 95.748 346.422 95.3188ZM343.676 126.302C349.037 126.895 352.583 117.186 353.609 107.915C354.634 98.643 353.297 88.3941 347.936 87.801C344.916 87.4668 342.472 90.4034 340.73 94.6891L340.309 94.6424C342.932 84.6767 347.113 77.9793 351.067 78.4167C356.413 79.0082 359.317 92.4103 357.554 108.351C355.79 124.292 350.027 136.735 344.681 136.143C340.726 135.706 338.11 128.256 337.729 117.958L338.15 118.005C338.913 122.568 340.656 125.967 343.676 126.302ZM344.455 138.178C352.142 139.028 357.884 123.93 359.582 108.575C361.281 93.2211 358.979 77.2329 351.292 76.3825C345.59 75.7516 340.96 83.8996 338.255 94.4153L331.631 93.6824C336.29 68.0822 346.102 49.5469 355.29 50.5634C365.818 51.7281 371.537 78.1211 368.064 109.514C364.591 140.907 353.241 165.411 342.713 164.246C333.525 163.23 328.001 142.998 329.052 116.998L335.676 117.731C336.017 128.584 338.753 137.547 344.455 138.178ZM327.017 116.773C326.558 127.821 327.255 138.115 329.081 146.542C331.694 158.603 336.456 165.613 342.488 166.281C348.52 166.948 354.699 161.148 359.886 149.95C364.765 139.417 368.39 125.136 370.093 109.738C371.797 94.3407 371.381 79.6128 368.923 68.2675C366.309 56.2064 361.548 49.1965 355.515 48.5291C349.483 47.8618 343.305 53.6613 338.118 64.8594C334.494 72.6833 331.564 82.5767 329.597 93.4574L329.087 93.401C334.457 61.8243 346.421 38.6805 357.61 39.9184C370.133 41.3039 376.936 72.6974 372.804 110.038C368.673 147.379 355.172 176.526 342.649 175.141C331.46 173.903 324.845 148.704 326.508 116.717L327.017 116.773Z" fill="#0A0A0A"/>
<path d="M434.371 107.146L434.371 107.145C434.283 106.915 434.189 106.706 434.09 106.511C434.068 106.468 434.045 106.429 434.023 106.388C433.943 106.24 433.86 106.105 433.774 105.98C433.74 105.932 433.707 105.886 433.672 105.841C433.592 105.737 433.508 105.645 433.423 105.56C433.382 105.52 433.343 105.479 433.301 105.444C433.212 105.368 433.119 105.309 433.025 105.255C432.985 105.232 432.947 105.203 432.906 105.184C432.77 105.121 432.631 105.077 432.486 105.061L424.545 104.182C424.491 105.661 424.415 107.154 424.316 108.66L435.026 109.845C434.875 108.802 434.654 107.888 434.371 107.146Z" fill="#EBEBEB"/>
<path d="M431.461 127.283C431.517 127.23 431.573 127.174 431.629 127.114C431.696 127.043 431.762 126.966 431.828 126.887C431.886 126.817 431.943 126.749 432 126.673C432.062 126.59 432.123 126.501 432.185 126.411C432.243 126.325 432.303 126.241 432.36 126.149C432.416 126.06 432.471 125.963 432.526 125.868C432.587 125.762 432.649 125.66 432.71 125.547C432.731 125.508 432.751 125.463 432.772 125.423C432.939 125.102 433.1 124.755 433.256 124.384C433.281 124.324 433.307 124.269 433.332 124.208C433.403 124.032 433.472 123.848 433.541 123.663C433.57 123.583 433.6 123.505 433.629 123.424C433.696 123.237 433.76 123.043 433.824 122.847C433.852 122.76 433.88 122.675 433.907 122.587C433.97 122.385 434.031 122.178 434.091 121.967C434.115 121.88 434.139 121.793 434.163 121.704C434.223 121.486 434.28 121.265 434.335 121.039C434.356 120.955 434.376 120.869 434.396 120.784C434.452 120.546 434.506 120.307 434.557 120.062C434.571 119.993 434.584 119.924 434.598 119.855C434.652 119.587 434.705 119.318 434.753 119.042L423.448 117.791C423.056 120.95 422.575 124.048 422.014 127.063L429.955 127.941C430.08 127.955 430.206 127.948 430.333 127.927C430.374 127.919 430.416 127.903 430.458 127.892C430.542 127.87 430.627 127.846 430.711 127.809C430.762 127.786 430.812 127.756 430.863 127.729C430.938 127.688 431.013 127.645 431.088 127.592C431.142 127.555 431.196 127.511 431.25 127.468C431.321 127.411 431.391 127.35 431.461 127.283Z" fill="#CBCBCB"/>
<path d="M35.3112 72.6998C36.7809 59.4159 39.5839 46.9122 43.3445 36.6438L30.0223 35.1699C25.884 44.2238 22.5454 56.8941 20.9723 71.1134C19.6516 83.0507 19.786 94.1913 21.08 103.225L34.7305 104.735C33.8736 95.0197 34.0577 84.0297 35.3112 72.6998Z" fill="#A2A2A2"/>
<path d="M46.27 29.5256C47.6494 26.5478 49.093 23.9284 50.5824 21.6821L44.1961 20.9756C43.8928 20.942 43.5887 20.932 43.2844 20.9446C43.2005 20.9481 43.1162 20.9662 43.0323 20.9732C42.8112 20.9912 42.5903 21.0082 42.3687 21.05C42.2802 21.0666 42.1915 21.0979 42.1031 21.1185C41.8855 21.1685 41.668 21.2172 41.4503 21.2894C41.3688 21.3164 41.2875 21.3565 41.206 21.3868C40.9809 21.4698 40.756 21.5533 40.5314 21.6594C40.4576 21.6943 40.3839 21.7408 40.3103 21.7781C40.0776 21.8958 39.845 22.0156 39.6128 22.1576C39.5509 22.1954 39.4898 22.2425 39.4279 22.2821C39.1835 22.4383 38.939 22.5993 38.6953 22.7816C38.6481 22.8169 38.6015 22.8594 38.5543 22.8958C38.2965 23.094 38.0392 23.3002 37.783 23.5272C37.7458 23.5602 37.7088 23.5983 37.6718 23.6317C37.4057 23.8718 37.14 24.1216 36.8757 24.3916C36.8491 24.4189 36.8225 24.45 36.7959 24.4773C36.521 24.7613 36.247 25.0574 35.9746 25.3729C35.9602 25.3893 35.9462 25.4078 35.932 25.4243C35.6477 25.7553 35.3646 26.1013 35.0834 26.4657C35.0775 26.4735 35.0714 26.4818 35.0656 26.4896C34.7761 26.8651 34.4885 27.2569 34.2031 27.6667C34.2022 27.6678 34.2015 27.6691 34.2008 27.67C32.7475 29.7554 31.3448 32.2777 30.0234 35.1685C30.0231 35.1689 30.0229 35.1693 30.0228 35.1699L43.345 36.6438C44.2649 34.1314 45.2404 31.7482 46.27 29.5256Z" fill="#CECECE"/>
<path d="M21.0811 103.232C21.191 103.999 21.31 104.749 21.4363 105.484C21.4458 105.539 21.4555 105.594 21.4652 105.649C21.5875 106.351 21.717 107.037 21.8541 107.709C21.8635 107.755 21.8727 107.802 21.8824 107.848C22.4705 110.7 23.1921 113.268 24.0347 115.502C24.0639 115.579 24.0944 115.654 24.1239 115.73C24.2997 116.187 24.4803 116.628 24.6664 117.055C24.7133 117.163 24.7607 117.269 24.8083 117.375C24.9846 117.767 25.1657 118.145 25.3506 118.511C25.403 118.614 25.4549 118.719 25.5078 118.821C25.703 119.193 25.9038 119.549 26.1081 119.891C26.1511 119.964 26.1931 120.041 26.2365 120.112C26.7371 120.927 27.2643 121.652 27.8167 122.28C27.8783 122.351 27.9424 122.411 28.0049 122.479C28.2142 122.706 28.4258 122.924 28.642 123.123C28.7375 123.211 28.835 123.291 28.9319 123.374C29.1213 123.535 29.3127 123.688 29.5069 123.828C29.616 123.907 29.7258 123.982 29.8365 124.054C30.0278 124.178 30.2218 124.29 30.4179 124.393C30.5305 124.453 30.6428 124.514 30.7568 124.566C30.9678 124.663 31.1822 124.742 31.3982 124.815C31.4997 124.849 31.5995 124.891 31.7023 124.92C32.0196 125.009 32.3414 125.078 32.6689 125.114C32.6706 125.115 32.6726 125.115 32.6745 125.116L39.0609 125.822C38.0985 123.305 37.2622 120.433 36.5673 117.226C35.7365 113.392 35.1241 109.198 34.7306 104.735L21.0801 103.225C21.0802 103.227 21.0808 103.23 21.0811 103.232Z" fill="#7E7E7E"/>
<path d="M52.7747 112.788C51.5349 101.407 51.6455 88.2631 53.149 74.6734C54.8745 59.0768 58.264 44.4596 62.8162 32.7415L47.811 31.0814C43.0243 41.6821 39.1671 56.4109 37.3401 72.9244C35.7659 87.153 35.9546 100.415 37.5406 111.103L52.7747 112.788Z" fill="#A2A2A2"/>
<path d="M62.8163 32.7414C63.5977 30.7297 64.4095 28.7932 65.2571 26.963C67.5271 22.0622 69.9524 18.0438 72.4633 14.9663L64.5892 14.0951C64.2313 14.0555 63.8722 14.0442 63.5128 14.0593C63.4175 14.0634 63.3216 14.084 63.226 14.0919C62.9614 14.1135 62.6965 14.1355 62.4315 14.1858C62.3248 14.2059 62.2182 14.2434 62.1116 14.2682C61.8568 14.3275 61.6021 14.3859 61.3472 14.471C61.2416 14.5064 61.1361 14.5574 61.0305 14.5972C60.7739 14.694 60.5174 14.7902 60.261 14.9124C60.1636 14.9589 60.0661 15.019 59.9689 15.0691C59.7035 15.2056 59.4384 15.3437 59.1741 15.5067C59.0881 15.5595 59.0029 15.624 58.9173 15.6798C58.6407 15.8593 58.3646 16.043 58.0891 16.251C58.0159 16.3062 57.943 16.3707 57.87 16.4281C57.5818 16.6535 57.294 16.8861 57.0075 17.1419C56.9479 17.1952 56.8887 17.2556 56.8291 17.3102C56.5291 17.5851 56.2296 17.8694 55.9314 18.1764C55.8852 18.224 55.8394 18.2768 55.7933 18.325C55.4824 18.6507 55.1724 18.9889 54.8643 19.3491C54.8292 19.3901 54.7945 19.4345 54.7594 19.4759C54.4405 19.8531 54.1223 20.2447 53.8066 20.6578C53.7828 20.689 53.7591 20.7226 53.7352 20.754C53.4093 21.1838 53.0847 21.6297 52.7622 22.0963C52.7472 22.1183 52.7323 22.1417 52.7171 22.1636C52.386 22.6451 52.0575 23.1441 51.7314 23.6636C51.725 23.6734 51.7188 23.6842 51.7124 23.6945C51.3787 24.2273 51.0472 24.779 50.7192 25.3504C50.7181 25.3523 50.7169 25.3543 50.7157 25.3562C49.7178 27.0941 48.747 29.007 47.812 31.0778C47.8115 31.079 47.811 31.0801 47.8104 31.0813L62.8163 32.7414Z" fill="#CECECE"/>
<path d="M54.5349 123.877C53.7877 120.428 53.202 116.711 52.7746 112.788L37.5405 111.103C37.5409 111.105 37.5413 111.107 37.5415 111.109C38.2201 115.678 39.1548 119.774 40.3181 123.272C40.3254 123.294 40.333 123.316 40.3406 123.338C40.5558 123.981 40.7797 124.602 41.0102 125.205C41.0432 125.291 41.0768 125.375 41.1103 125.461C41.3207 126 41.5377 126.52 41.7605 127.024C41.8041 127.122 41.8474 127.222 41.8916 127.319C42.1163 127.815 42.3481 128.291 42.5849 128.75C42.6247 128.827 42.6633 128.907 42.7035 128.983C43.5356 130.561 44.4399 131.907 45.4099 133.002C45.4925 133.095 45.5778 133.178 45.6613 133.268C45.8951 133.518 46.1314 133.758 46.3726 133.979C46.4852 134.082 46.5995 134.177 46.714 134.274C46.9335 134.46 47.1557 134.635 47.3814 134.796C47.508 134.887 47.6353 134.974 47.7638 135.057C47.9875 135.202 48.2145 135.33 48.4435 135.45C48.5739 135.519 48.7035 135.59 48.8356 135.651C49.0827 135.764 49.3341 135.855 49.5871 135.94C49.704 135.979 49.8191 136.028 49.937 136.061C50.3094 136.165 50.6864 136.245 51.0708 136.287L58.9448 137.158C57.167 133.607 55.679 129.155 54.5349 123.877Z" fill="#7E7E7E"/>
<path d="M67.8106 76.2953C69.8324 58.021 74.1324 41.0771 79.9188 28.5849C80.1642 28.0553 80.4141 27.5532 80.6629 27.0442L68.1501 25.6599C68.1542 25.6517 68.1584 25.6442 68.1625 25.636C62.222 37.4996 57.3748 55.0396 55.1778 74.8977C53.945 86.0408 53.6928 96.6448 54.2689 106.089L66.8661 107.483C66.2999 97.8267 66.6033 87.2075 67.8106 76.2953Z" fill="#A2A2A2"/>
<path d="M80.6629 27.0443C84.7279 18.7292 89.2497 13.1712 93.8557 10.738L85.3327 9.79508C84.9532 9.7531 84.5728 9.74165 84.1919 9.75518C84.0647 9.75974 83.9372 9.78248 83.81 9.79323C83.5554 9.81433 83.3011 9.83447 83.0462 9.87977C82.8949 9.90668 82.7433 9.95139 82.5916 9.98648C82.3608 10.0403 82.1302 10.0918 81.8992 10.1648C81.737 10.2162 81.5744 10.2833 81.4119 10.344C81.1919 10.426 80.9722 10.5075 80.7523 10.6067C80.5843 10.6824 80.4164 10.7718 80.2486 10.8574C80.0341 10.9668 79.82 11.0771 79.606 11.2024C79.4354 11.3021 79.2652 11.4127 79.0949 11.5224C78.8841 11.6581 78.6739 11.7967 78.4635 11.9472C78.2912 12.0708 78.1191 12.2027 77.9469 12.3363C77.7396 12.4972 77.5327 12.6629 77.3258 12.8381C77.153 12.9844 76.9806 13.1368 76.8083 13.2927C76.6029 13.4791 76.398 13.6723 76.1933 13.8724C76.0214 14.0404 75.85 14.2121 75.6785 14.3896C75.4748 14.6012 75.2717 14.8212 75.0689 15.0461C74.8988 15.235 74.7286 15.4246 74.5593 15.6226C74.3563 15.8597 74.1545 16.1073 73.9527 16.3575C73.7851 16.5653 73.6176 16.7721 73.4511 16.9886C73.2491 17.2512 73.0487 17.526 72.848 17.8016C72.6839 18.0272 72.5193 18.2495 72.3559 18.4838C72.1528 18.7749 71.9516 19.0801 71.75 19.3844C71.5922 19.6229 71.4336 19.8561 71.2765 20.1023C71.0682 20.4293 70.8623 20.7722 70.6558 21.1129C70.5084 21.3563 70.3599 21.5926 70.2133 21.843C69.9873 22.2291 69.7642 22.633 69.5408 23.0353C69.4169 23.2581 69.2915 23.4719 69.1687 23.6996C68.83 24.3271 68.494 24.972 68.1618 25.6354C68.1577 25.6435 68.1535 25.6511 68.1494 25.6592L80.663 27.0437L80.6629 27.0443Z" fill="#CECECE"/>
<path d="M64.991 142.305C65.2763 142.576 65.5671 142.825 65.8619 143.058C65.9479 143.126 66.0353 143.188 66.1222 143.253C66.3593 143.429 66.5994 143.594 66.8423 143.745C66.9254 143.797 67.0076 143.852 67.0915 143.9C67.4047 144.083 67.7221 144.247 68.0445 144.387C68.1075 144.415 68.1722 144.436 68.2358 144.461C68.5081 144.572 68.7838 144.667 69.0624 144.747C69.1549 144.774 69.2478 144.801 69.3409 144.824C69.6809 144.909 70.0234 144.979 70.3725 145.017L78.8955 145.96C74.6902 142.372 71.3396 135.387 69.1967 125.498C68.0221 120.078 67.248 113.997 66.8661 107.483L54.2688 106.089C54.2688 106.089 54.2689 106.09 54.2689 106.09C54.563 110.912 55.0751 115.429 55.7858 119.557C55.7975 119.625 55.8094 119.692 55.8211 119.76C56.11 121.418 56.4318 123.011 56.7843 124.537C56.8136 124.664 56.8426 124.79 56.872 124.916C56.9844 125.392 57.0989 125.862 57.2174 126.324C57.2377 126.403 57.259 126.48 57.2796 126.559C57.4978 127.398 57.7268 128.211 57.9649 129.002C58.0186 129.18 58.0717 129.361 58.1265 129.537C58.2413 129.906 58.3588 130.269 58.478 130.626C58.55 130.843 58.6241 131.055 58.698 131.268C58.8841 131.805 59.0756 132.327 59.2719 132.836C59.371 133.093 59.469 133.352 59.5706 133.602C59.6829 133.879 59.7983 134.147 59.9139 134.415C60.0232 134.669 60.1339 134.918 60.2459 135.163C60.3552 135.403 60.4642 135.644 60.5759 135.876C60.7795 136.298 60.9872 136.708 61.1988 137.104C61.2973 137.288 61.3989 137.461 61.4991 137.639C61.6498 137.907 61.8022 138.169 61.9569 138.424C62.0609 138.595 62.1649 138.765 62.2705 138.929C62.4822 139.26 62.6974 139.579 62.9162 139.884C63.0017 140.003 63.0882 140.119 63.1748 140.235C63.3901 140.522 63.6088 140.798 63.8305 141.061C63.9275 141.176 64.0256 141.288 64.1236 141.398C64.3401 141.642 64.56 141.874 64.7824 142.094C64.8526 142.164 64.9208 142.238 64.991 142.305Z" fill="#7E7E7E"/>
<path d="M113.047 93.1007C111.08 103.981 108.15 113.875 104.526 121.699C99.3392 132.897 93.1606 138.696 87.1284 138.029C81.0962 137.362 76.3346 130.352 73.721 118.291C71.2625 106.945 70.8467 92.2174 72.5503 76.8197C74.2538 61.4221 77.8789 47.1413 82.758 36.6078C87.9448 25.4096 94.1235 19.6101 100.156 20.2775C106.188 20.9449 110.949 27.9548 113.563 40.0159C115.389 48.4428 116.086 58.7373 115.627 69.7848L116.136 69.8412C117.799 37.8544 111.183 12.6551 99.9944 11.4172C87.4714 10.0317 73.9706 39.179 69.8394 76.5198C65.7082 113.86 72.5112 145.254 85.0341 146.64C96.223 147.878 108.187 124.734 113.556 93.1571L113.047 93.1007Z" fill="#A2A2A2"/>
<path d="M99.9308 22.312C89.4025 21.1472 78.0522 45.6516 74.579 77.0444C71.1059 108.437 76.8252 134.83 87.3535 135.995C96.5414 137.011 106.354 118.476 111.012 92.8758L104.388 92.1429C101.683 102.659 97.0537 110.807 91.3516 110.176C83.6648 109.325 81.3627 93.3369 83.0614 77.9828C84.7601 62.6285 90.5015 47.5302 98.1883 48.3806C103.89 49.0115 106.627 57.9745 106.968 68.8271L113.592 69.5599C114.642 43.5603 109.119 23.3284 99.9308 22.312Z" fill="#7E7E7E"/>
<path d="M97.9633 50.4146C92.6172 49.8232 86.8538 62.2663 85.0902 78.207C83.3266 94.1478 86.2306 107.55 91.5767 108.141C95.531 108.579 99.7118 101.881 102.335 91.9156L101.145 91.7839C99.8742 93.8008 98.2919 95.0058 96.419 94.7986C91.9782 94.3073 90.8326 86.477 91.6671 78.9347C92.5015 71.3923 95.331 64.0018 99.7719 64.4932C101.645 64.7004 102.925 66.2221 103.725 68.468L104.915 68.5997C104.533 58.3017 101.917 50.8521 97.9633 50.4146Z" fill="#A2A2A2"/>
<path d="M93.7202 87.1978C94.1764 90.4293 95.2162 92.6062 96.6437 92.7641C97.3692 92.8444 98.1107 92.3871 98.8167 91.5263L97.353 91.3644C95.4415 91.1529 94.3087 89.4805 93.7202 87.1978Z" fill="#7E7E7E"/>
<path d="M99.9325 68.0485L101.396 68.2104C100.896 67.2162 100.272 66.6076 99.5463 66.5274C98.1186 66.3694 96.6283 68.2663 95.4768 71.32C96.55 69.2213 98.0209 67.837 99.9325 68.0485Z" fill="#7E7E7E"/>
<path d="M420.211 125.579C420.794 122.313 421.286 118.927 421.672 115.445C422.856 104.743 422.872 94.6783 421.93 86.2001L408.131 84.6734C408.724 93.6655 408.465 103.623 407.333 113.858C406.952 117.3 406.477 120.686 405.924 123.999L420.211 125.579Z" fill="#A2A2A2"/>
<path d="M421.93 86.2001C421.93 86.1995 421.93 86.1988 421.93 86.198C421.833 85.3254 421.725 84.4705 421.608 83.6324C421.596 83.5468 421.583 83.4642 421.571 83.379C421.469 82.6696 421.361 81.9741 421.245 81.2914C421.215 81.1151 421.184 80.9412 421.154 80.7668C421.046 80.1543 420.932 79.5533 420.813 78.9639C420.781 78.809 420.751 78.6521 420.719 78.4987C420.412 77.0344 420.07 75.6438 419.694 74.3377C419.663 74.2297 419.63 74.1271 419.598 74.0203C419.443 73.4934 419.282 72.9803 419.115 72.4816C419.061 72.3213 419.007 72.1638 418.952 72.0064C418.795 71.5552 418.633 71.1178 418.467 70.6918C418.412 70.5508 418.358 70.4074 418.302 70.2692C418.088 69.7409 417.868 69.2291 417.64 68.743C417.634 68.7302 417.628 68.7161 417.623 68.7033C417.385 68.1983 417.137 67.7211 416.884 67.2635C416.823 67.1531 416.76 67.0509 416.697 66.9435C416.506 66.6121 416.312 66.2928 416.113 65.9888C416.029 65.8612 415.945 65.7369 415.86 65.6141C415.667 65.3359 415.47 65.0724 415.27 64.8199C415.188 64.717 415.108 64.6099 415.025 64.5113C414.757 64.1918 414.484 63.8912 414.204 63.6187C414.191 63.6058 414.178 63.5904 414.165 63.5776C413.871 63.2947 413.569 63.0444 413.263 62.8148C413.172 62.7476 413.08 62.6909 412.99 62.6282C412.768 62.4759 412.544 62.3352 412.317 62.2109C412.207 62.1512 412.097 62.0953 411.986 62.0422C411.76 61.9336 411.53 61.8415 411.298 61.7607C411.194 61.7251 411.093 61.684 410.989 61.6538C410.654 61.557 410.316 61.4807 409.97 61.4424L403.583 60.7358C404.546 63.2533 405.382 66.125 406.077 69.3323C407.082 73.9714 407.767 79.1402 408.132 84.6729L421.93 86.1995L421.93 86.2001Z" fill="#CECECE"/>
<path d="M404.628 163.228C404.692 163.173 404.756 163.126 404.82 163.07C405.098 162.826 405.376 162.563 405.653 162.285C405.754 162.184 405.853 162.073 405.953 161.968C406.133 161.78 406.312 161.591 406.49 161.39C406.61 161.255 406.728 161.111 406.848 160.969C407.005 160.783 407.163 160.594 407.32 160.397C407.445 160.239 407.57 160.075 407.695 159.911C407.844 159.715 407.992 159.516 408.14 159.311C408.268 159.133 408.396 158.953 408.524 158.768C408.666 158.562 408.808 158.35 408.95 158.135C409.079 157.939 409.208 157.743 409.337 157.539C409.475 157.321 409.611 157.096 409.748 156.87C409.877 156.656 410.007 156.446 410.135 156.226C410.27 155.994 410.403 155.752 410.537 155.513C410.664 155.286 410.792 155.065 410.918 154.831C411.158 154.385 411.396 153.928 411.631 153.459C411.772 153.178 411.911 152.886 412.05 152.598C412.161 152.367 412.273 152.141 412.383 151.906C412.522 151.609 412.659 151.302 412.796 150.996C412.902 150.761 413.008 150.527 413.112 150.287C413.25 149.972 413.385 149.65 413.521 149.328C413.621 149.087 413.722 148.846 413.821 148.601C413.958 148.266 414.093 147.927 414.228 147.584C414.321 147.344 414.414 147.102 414.507 146.858C414.644 146.499 414.78 146.139 414.914 145.772C414.999 145.538 415.084 145.3 415.168 145.062C415.306 144.676 415.443 144.29 415.578 143.896C415.648 143.692 415.716 143.483 415.785 143.277C416.304 141.724 416.802 140.112 417.275 138.44C417.305 138.334 417.336 138.231 417.366 138.125C417.5 137.646 417.63 137.158 417.76 136.67C417.818 136.453 417.877 136.238 417.934 136.019C418.056 135.552 418.174 135.079 418.292 134.604C418.353 134.359 418.414 134.114 418.474 133.867C418.588 133.395 418.7 132.918 418.81 132.439C418.869 132.184 418.927 131.929 418.984 131.673C419.092 131.188 419.199 130.702 419.304 130.211C419.357 129.959 419.41 129.706 419.462 129.452C419.567 128.944 419.672 128.435 419.772 127.92C419.814 127.705 419.854 127.485 419.895 127.269C420.002 126.71 420.108 126.15 420.209 125.584C420.21 125.582 420.21 125.581 420.21 125.579L405.923 123.999C403.819 136.598 400.521 148.08 396.373 157.033C394.994 160.01 393.55 162.63 392.061 164.876L398.447 165.583C398.732 165.614 399.018 165.622 399.304 165.613C399.396 165.61 399.489 165.596 399.582 165.589C399.775 165.574 399.969 165.556 400.163 165.523C400.274 165.504 400.385 165.476 400.495 165.452C400.672 165.412 400.849 165.369 401.026 165.315C401.142 165.279 401.259 165.238 401.376 165.196C401.548 165.134 401.72 165.066 401.892 164.991C402.01 164.939 402.128 164.885 402.246 164.827C402.419 164.742 402.591 164.648 402.764 164.549C402.879 164.484 402.994 164.42 403.109 164.348C403.291 164.235 403.471 164.11 403.652 163.983C403.757 163.909 403.862 163.84 403.967 163.762C404.188 163.596 404.408 163.414 404.628 163.228Z" fill="#7E7E7E"/>
<path d="M401.744 134.438C400.552 139.483 399.173 144.185 397.654 148.442C401.116 138.747 403.852 126.756 405.304 113.634C407.415 94.5489 406.364 77.1877 403.006 65.4754C403.597 67.5376 404.117 69.7743 404.56 72.1653L389.469 70.4957C391.119 82.5935 391.145 96.9717 389.495 111.885C388.697 119.098 387.539 126.098 386.079 132.705L401.744 134.438Z" fill="#A2A2A2"/>
<path d="M404.561 72.1653C404.117 69.7743 403.597 67.5377 403.006 65.4754C402.983 65.395 402.958 65.3195 402.935 65.2396C402.764 64.6538 402.589 64.0794 402.407 63.5228C402.358 63.3723 402.305 63.2295 402.255 63.0812C402.095 62.6075 401.933 62.1399 401.764 61.6887C401.697 61.508 401.627 61.3358 401.558 61.159C401.401 60.7551 401.242 60.3564 401.078 59.9721C400.997 59.7836 400.914 59.6026 400.832 59.4187C400.674 59.0645 400.514 58.7159 400.349 58.3801C400.257 58.1921 400.163 58.0107 400.069 57.8282C399.909 57.5167 399.746 57.2121 399.58 56.9178C399.478 56.7364 399.374 56.5601 399.27 56.3855C399.105 56.1106 398.938 55.844 398.769 55.5859C398.658 55.4169 398.546 55.2511 398.433 55.0894C398.264 54.8473 398.091 54.616 397.918 54.3911C397.799 54.2374 397.68 54.0848 397.559 53.939C397.384 53.728 397.205 53.53 397.026 53.336C396.901 53.2007 396.776 53.0644 396.649 52.9375C396.467 52.7562 396.281 52.59 396.094 52.4262C395.964 52.3115 395.834 52.193 395.702 52.087C395.511 51.9341 395.316 51.7993 395.12 51.6648C394.987 51.5729 394.856 51.4747 394.721 51.3916C394.515 51.2654 394.306 51.1605 394.096 51.0542C393.965 50.9883 393.837 50.9128 393.705 50.8545C393.471 50.7513 393.232 50.6736 392.992 50.596C392.88 50.5593 392.77 50.5105 392.656 50.4797C392.301 50.3829 391.94 50.3114 391.573 50.2708L383.699 49.3997C385.477 52.9514 386.965 57.4028 388.109 62.6815C388.645 65.1562 389.098 67.769 389.469 70.4957L404.561 72.1653Z" fill="#CECECE"/>
<path d="M385.308 169.698C385.387 169.631 385.466 169.571 385.546 169.502C385.848 169.235 386.15 168.948 386.45 168.649C386.581 168.519 386.71 168.38 386.84 168.245C387.023 168.053 387.205 167.859 387.387 167.655C387.531 167.494 387.675 167.33 387.818 167.162C387.987 166.964 388.155 166.759 388.322 166.551C388.468 166.371 388.614 166.194 388.759 166.006C388.955 165.751 389.149 165.484 389.344 165.217C389.583 164.888 389.821 164.547 390.059 164.198C390.197 163.995 390.335 163.793 390.472 163.583C390.643 163.321 390.814 163.05 390.984 162.777C391.103 162.587 391.221 162.395 391.339 162.2C391.518 161.904 391.696 161.606 391.873 161.299C391.965 161.139 392.056 160.974 392.148 160.812C392.8 159.654 393.441 158.423 394.066 157.12C394.123 157.004 394.179 156.888 394.235 156.77C394.44 156.336 394.644 155.895 394.846 155.447C394.894 155.34 394.942 155.232 394.989 155.125C395.909 153.062 396.793 150.849 397.634 148.497C397.64 148.479 397.647 148.461 397.654 148.443C399.173 144.185 400.552 139.484 401.744 134.438L386.079 132.705C383.842 142.836 380.889 152.034 377.386 159.595C375.116 164.496 372.691 168.515 370.18 171.592L378.055 172.463C378.376 172.499 378.698 172.506 379.02 172.497C379.121 172.494 379.221 172.484 379.321 172.477C379.549 172.462 379.778 172.437 380.006 172.4C380.116 172.382 380.226 172.363 380.335 172.341C380.576 172.291 380.816 172.228 381.056 172.155C381.142 172.129 381.229 172.109 381.315 172.08C381.635 171.972 381.954 171.845 382.274 171.698C382.355 171.66 382.435 171.614 382.516 171.574C382.758 171.455 383 171.327 383.242 171.185C383.36 171.115 383.478 171.041 383.596 170.967C383.806 170.833 384.017 170.692 384.227 170.542C384.345 170.457 384.464 170.375 384.583 170.285C384.825 170.101 385.066 169.904 385.308 169.698Z" fill="#7E7E7E"/>
<path d="M387.466 111.66C389.661 91.8159 388.769 73.6515 385.57 60.7777L373.058 59.3933C373.189 59.9444 373.323 60.489 373.447 61.0594C376.362 74.5144 376.855 91.9884 374.833 110.263C373.626 121.175 371.601 131.604 368.938 140.902L381.535 142.296C384.161 133.206 386.233 122.804 387.466 111.66Z" fill="#A2A2A2"/>
<path d="M385.57 60.7777C385.389 60.0483 385.2 59.3372 385.004 58.6424C384.934 58.3933 384.859 58.1573 384.787 57.9128C384.656 57.4715 384.527 57.0285 384.391 56.6024C384.303 56.3273 384.21 56.0653 384.12 55.7967C383.992 55.4173 383.865 55.0362 383.733 54.6697C383.635 54.3979 383.532 54.1384 383.431 53.8738C383.3 53.5301 383.169 53.1854 383.033 52.8541C382.926 52.5922 382.815 52.3411 382.705 52.0872C382.569 51.7725 382.432 51.4584 382.292 51.1563C382.177 50.9093 382.059 50.6718 381.941 50.4334C381.799 50.1447 381.656 49.8585 381.51 49.5826C381.388 49.3524 381.263 49.1302 381.138 48.9087C380.989 48.6449 380.84 48.3858 380.687 48.1348C380.559 47.9241 380.429 47.7191 380.298 47.5175C380.142 47.2776 379.984 47.0443 379.824 46.8175C379.691 46.6275 379.556 46.4413 379.419 46.2607C379.256 46.0446 379.09 45.8376 378.923 45.6355C378.784 45.4671 378.644 45.3005 378.503 45.1421C378.331 44.9496 378.157 44.7689 377.981 44.5908C377.838 44.4461 377.696 44.3004 377.551 44.1654C377.37 43.9967 377.186 43.8428 377.001 43.6895C376.855 43.5689 376.711 43.4447 376.563 43.3337C376.37 43.1892 376.174 43.0622 375.978 42.9341C375.832 42.8389 375.688 42.7376 375.54 42.6518C375.331 42.5305 375.118 42.4298 374.905 42.3274C374.765 42.2595 374.626 42.1825 374.484 42.1231C374.245 42.0235 374.002 41.9483 373.759 41.8721C373.636 41.8337 373.517 41.7834 373.393 41.7511C373.024 41.6547 372.651 41.5827 372.271 41.5407L363.749 40.5978C367.711 43.9789 370.909 50.391 373.058 59.3935L385.57 60.7779L385.57 60.7777Z" fill="#CECECE"/>
<path d="M365.38 173.669C365.49 173.576 365.599 173.482 365.708 173.385C365.989 173.134 366.269 172.869 366.548 172.592C366.687 172.456 366.825 172.313 366.962 172.17C367.17 171.954 367.378 171.73 367.584 171.5C367.72 171.35 367.856 171.204 367.991 171.047C368.285 170.707 368.578 170.351 368.87 169.983C369.028 169.782 369.186 169.573 369.344 169.364C369.508 169.147 369.673 168.926 369.836 168.701C370.006 168.466 370.176 168.231 370.345 167.987C370.503 167.76 370.659 167.523 370.816 167.288C371.115 166.839 371.413 166.376 371.709 165.898C371.827 165.707 371.945 165.517 372.063 165.322C372.258 164.998 372.452 164.67 372.645 164.334C372.737 164.174 372.828 164.01 372.919 163.847C373.323 163.131 373.722 162.391 374.116 161.624C374.156 161.547 374.196 161.472 374.235 161.395C374.451 160.972 374.664 160.54 374.877 160.102C374.934 159.984 374.992 159.864 375.049 159.745C375.726 158.334 376.387 156.851 377.032 155.297C377.058 155.234 377.084 155.171 377.11 155.107C378.706 151.234 380.193 146.939 381.535 142.297C381.535 142.297 381.535 142.297 381.535 142.296L368.938 140.903C367.141 147.176 365.056 152.94 362.725 157.973C358.472 167.154 353.676 173.238 348.788 175.82L357.311 176.763C357.66 176.802 358.009 176.808 358.36 176.8C358.456 176.797 358.552 176.792 358.648 176.786C358.938 176.769 359.228 176.736 359.517 176.687C359.585 176.676 359.652 176.67 359.72 176.657C360.065 176.59 360.411 176.5 360.756 176.39C360.849 176.361 360.941 176.325 361.034 176.293C361.304 176.198 361.574 176.091 361.844 175.97C361.943 175.926 362.042 175.884 362.14 175.837C362.479 175.674 362.817 175.495 363.155 175.292C363.238 175.242 363.321 175.185 363.404 175.132C363.669 174.966 363.935 174.788 364.199 174.597C364.319 174.511 364.438 174.424 364.558 174.333C364.833 174.124 365.107 173.903 365.38 173.669Z" fill="#7E7E7E"/>
<path d="M342.649 175.141C355.172 176.526 368.673 147.379 372.804 110.038C376.935 72.6976 370.133 41.3039 357.61 39.9184C346.421 38.6805 334.457 61.8244 329.087 93.401L329.597 93.4574C331.564 82.5767 334.494 72.6834 338.118 64.8595C343.304 53.6613 349.483 47.8618 355.515 48.5292C361.548 49.1966 366.309 56.2064 368.922 68.2676C371.381 79.6128 371.797 94.3407 370.093 109.738C368.39 125.136 364.765 139.417 359.885 149.95C354.699 161.148 348.52 166.948 342.488 166.281C336.456 165.613 331.694 158.603 329.081 146.542C327.255 138.115 326.558 127.821 327.017 116.773L326.508 116.717C324.845 148.704 331.46 173.903 342.649 175.141Z" fill="#A2A2A2"/>
<path d="M342.713 164.246C353.241 165.411 364.592 140.906 368.065 109.514C371.538 78.1213 365.818 51.7282 355.29 50.5634C346.102 49.5469 336.29 68.0822 331.631 93.6825L338.255 94.4153C340.96 83.8995 345.59 75.7517 351.292 76.3826C358.979 77.233 361.281 93.2214 359.583 108.576C357.884 123.93 352.143 139.028 344.456 138.178C338.753 137.547 336.017 128.584 335.676 117.731L329.052 116.998C328.002 142.998 333.525 163.23 342.713 164.246Z" fill="#7E7E7E"/>
<path d="M344.68 136.143C350.027 136.735 355.79 124.292 357.554 108.351C359.317 92.4101 356.413 79.0082 351.067 78.4168C347.113 77.9793 342.932 84.6769 340.308 94.6425L340.73 94.6891C342.472 90.4036 344.915 87.4669 347.936 87.801C353.297 88.3941 354.634 98.6431 353.609 107.915C352.583 117.186 349.037 126.895 343.676 126.302C340.656 125.968 338.913 122.568 338.15 118.005L337.729 117.958C338.11 128.257 340.726 135.706 344.68 136.143Z" fill="#A2A2A2"/>
<path d="M343.843 118.635L340.277 118.24C340.955 121.766 342.223 124.082 343.902 124.267C347.091 124.62 350.528 117.198 351.58 107.69C352.632 98.182 350.9 90.1881 347.711 89.8353C346.033 89.6496 344.289 91.6314 342.857 94.9244L346.422 95.3188C350.302 95.7481 350.984 102.18 350.389 107.558C349.794 112.936 347.722 119.064 343.843 118.635Z" fill="#7E7E7E"/>
<path d="M348.104 109.114C348.064 109.347 348.019 109.574 347.973 109.8C348.132 109.016 348.265 108.193 348.36 107.334C348.605 105.116 348.576 103.052 348.334 101.377L96.7432 73.5427C96.1405 75.1234 95.661 77.1318 95.4157 79.3496C95.3481 79.9608 95.3035 80.5587 95.2759 81.1422L348.104 109.114Z" fill="#EBEBEB"/>
<path d="M348.334 101.377C348.334 101.377 348.334 101.376 348.334 101.376C348.207 100.5 348.021 99.7326 347.783 99.1083C347.783 99.1062 347.782 99.1045 347.781 99.1022C347.708 98.9111 347.629 98.7366 347.547 98.5735C347.528 98.5365 347.508 98.5031 347.489 98.4678C347.423 98.3449 347.353 98.2314 347.281 98.1274C347.253 98.0859 347.224 98.0467 347.194 98.0084C347.127 97.921 347.057 97.8442 346.986 97.7736C346.952 97.7398 346.918 97.7048 346.883 97.6749C346.808 97.6116 346.731 97.562 346.652 97.5168C346.618 97.4972 346.585 97.4724 346.551 97.4563C346.437 97.4039 346.32 97.3667 346.198 97.3533C346.198 97.3532 346.198 97.353 346.197 97.353L158.206 76.5546L99.7076 70.0826C99.5859 70.0691 99.4631 70.0797 99.3403 70.1062C99.3031 70.1143 99.2662 70.1313 99.229 70.143C99.1421 70.1698 99.0554 70.2013 98.9684 70.2469C98.9277 70.2683 98.8874 70.295 98.8469 70.3204C98.7614 70.3738 98.6761 70.4339 98.5912 70.5044C98.5545 70.5352 98.5178 70.5672 98.4809 70.6009C98.3877 70.6871 98.2948 70.7828 98.2028 70.8886C98.1767 70.9186 98.1507 70.9463 98.1246 70.9779C98.0079 71.1196 97.8921 71.2738 97.7787 71.4455C97.7782 71.4464 97.7775 71.447 97.777 71.4479C97.409 72.0048 97.0598 72.7132 96.7443 73.5392C96.744 73.5404 96.7433 73.5411 96.743 73.5423L96.7432 73.5423L348.334 101.377L348.334 101.377Z" fill="#EBEBEB"/>
<path d="M156.077 95.8021L344.068 116.6C344.173 116.612 344.279 116.606 344.385 116.588C344.421 116.582 344.456 116.568 344.491 116.558C344.562 116.54 344.633 116.52 344.704 116.489C344.746 116.47 344.788 116.445 344.83 116.422C344.894 116.387 344.958 116.351 345.022 116.306C345.067 116.275 345.112 116.239 345.157 116.202C345.217 116.154 345.276 116.102 345.336 116.046C345.382 116.001 345.429 115.955 345.476 115.905C345.532 115.845 345.589 115.779 345.645 115.712C345.693 115.654 345.74 115.597 345.788 115.534C345.841 115.464 345.893 115.387 345.946 115.31C345.995 115.239 346.043 115.17 346.092 115.093C346.14 115.017 346.186 114.934 346.233 114.852C346.284 114.765 346.336 114.68 346.386 114.587C346.407 114.548 346.427 114.503 346.447 114.463C346.584 114.198 346.717 113.913 346.846 113.608C346.867 113.558 346.888 113.511 346.909 113.46C346.968 113.314 347.026 113.159 347.083 113.005C347.109 112.936 347.135 112.869 347.16 112.799C347.216 112.642 347.269 112.48 347.322 112.316C347.346 112.243 347.37 112.17 347.393 112.095C347.446 111.926 347.497 111.752 347.547 111.576C347.568 111.502 347.588 111.429 347.609 111.354C347.659 111.17 347.707 110.983 347.754 110.791C347.771 110.723 347.787 110.653 347.803 110.583C347.85 110.382 347.897 110.179 347.94 109.971C347.952 109.915 347.962 109.857 347.974 109.8C348.02 109.574 348.064 109.346 348.105 109.114L95.2758 81.1419C95.2757 81.1433 95.2755 81.1449 95.2753 81.1462C95.2646 81.3772 95.2587 81.6038 95.2537 81.8292C95.2524 81.8921 95.2499 81.9557 95.249 82.0181C95.246 82.2255 95.2469 82.4288 95.2489 82.6309C95.2495 82.7081 95.2502 82.7857 95.2517 82.8621C95.2554 83.0556 95.262 83.2458 95.2705 83.4336C95.274 83.5123 95.2778 83.59 95.2822 83.6676C95.2924 83.8502 95.3042 84.0305 95.3186 84.2069C95.3248 84.2847 95.3323 84.3607 95.3395 84.4372C95.3555 84.6096 95.3726 84.7805 95.3928 84.9463C95.4014 85.018 95.412 85.0864 95.4214 85.1568C95.4437 85.322 95.4664 85.487 95.4929 85.6447C95.5018 85.6978 95.5125 85.7468 95.5217 85.7991C95.5826 86.1393 95.6528 86.4611 95.7325 86.7603C95.741 86.7921 95.748 86.8267 95.7565 86.8579C95.7858 86.9634 95.8187 87.0598 95.8504 87.1596C95.8774 87.2457 95.9038 87.334 95.9325 87.4155C95.9632 87.5026 95.9967 87.5824 96.0292 87.6641C96.0632 87.749 96.0967 87.8336 96.1327 87.9127C96.1653 87.9849 96.1996 88.0518 96.2339 88.1191C96.2736 88.197 96.314 88.2724 96.3557 88.3433C96.3903 88.4024 96.4262 88.4586 96.4624 88.5127C96.5075 88.5802 96.5539 88.6428 96.6012 88.7023C96.6377 88.7484 96.6744 88.7939 96.7119 88.8351C96.7638 88.8919 96.8177 88.9411 96.8718 88.9883C96.9082 89.0202 96.944 89.0542 96.9813 89.0816C97.0437 89.1273 97.1081 89.1623 97.1731 89.1959C97.2058 89.2128 97.2374 89.2347 97.2706 89.2484C97.3701 89.2892 97.4724 89.3182 97.5778 89.3298L156.077 95.8019L156.077 95.8021Z" fill="#CBCBCB"/>
</g>
</svg>
